<svg width="1490" height="592" viewBox="0 0 1490 592" fill="none" xmlns="http://www.w3.org/2000/svg">
<path d="M591.34 297.882C1043.01 299.236 1370.25 511.972 1482.77 622.738C1485.92 625.847 1487.55 629.984 1487.58 634.416L1488.25 742.986C1488.31 752.374 1480.75 760.033 1471.36 760.09L-60.9592 769.554C-70.3479 769.612 -78.0059 762.048 -78.0639 752.659L-82.0286 110.715C-82.147 91.5439 -41.2125 79.9177 -28.2488 94.042C58.3431 188.386 246.738 296.849 591.34 297.882Z" fill="#FFF5E2"/>
<path d="M223.888 445.154C675.559 446.508 1002.8 659.244 1115.32 770.01C1118.47 773.119 1120.1 777.256 1120.13 781.688L1120.8 890.258C1120.86 899.647 1113.29 907.305 1103.91 907.363L-428.411 916.826C-437.8 916.884 -445.458 909.32 -445.516 899.932L-449.48 257.987C-449.599 238.816 -408.664 227.19 -395.7 241.314C-309.109 335.658 -120.714 444.121 223.888 445.154Z" fill="#FFFBF3"/>
</svg>
