<svg width="492" height="150" viewBox="0 0 492 150" fill="none" xmlns="http://www.w3.org/2000/svg">
<path d="M100.363 126.456L111.408 140.557C124.051 133.523 134.446 122.939 141.248 110.15L129.136 87.2247L146.503 97.648C148.763 90.4967 150 82.8869 150 74.9894C150 71.7387 149.765 68.5413 149.371 65.3972L125.597 45.8078L145.021 48.0993C141.525 38.9975 136.3 30.7588 129.755 23.7566L107.484 18.8113L120.874 15.6778C108.188 5.86187 92.2813 0 75 0C57.7185 0 41.8124 5.86187 29.1258 15.6778L42.516 18.8113L20.2452 23.7566C13.6993 30.7482 8.47548 38.9975 4.97867 48.0993L24.403 45.8078L0.628998 65.3972C0.223881 68.5413 0 71.7387 0 74.9894C0 82.8869 1.22602 90.4967 3.4968 97.648L20.8635 87.2247L8.75267 110.15C15.5544 122.939 25.9488 133.523 38.5928 140.557L49.6375 126.456V145.577C57.5587 148.423 66.1088 149.99 75.0107 149.99C83.9126 149.99 92.4626 148.433 100.384 145.577V126.456H100.363Z" fill="#E99B00" fill-opacity="0.57"/>
<path d="M129.147 87.2356L134.744 90.5929L125.597 83.0577L145.021 85.3492C141.525 76.2472 136.3 68.0087 129.755 61.0064L107.484 56.0611L120.874 52.9277C108.188 43.1117 92.2813 37.2498 75.0001 37.2498C57.7187 37.2498 41.8125 43.1117 29.1259 52.9277L42.5161 56.0611L20.2452 61.0064C13.6994 67.998 8.47556 76.2472 4.97876 85.3492L24.4031 83.0577L15.2559 90.5929L20.853 87.2356L8.74208 110.161C11.6739 115.661 15.2666 120.755 19.4137 125.338L20.8423 124.474L20.032 126.01C25.3946 131.775 31.6418 136.71 38.5821 140.568L49.6269 126.468V145.588C57.548 148.433 66.0981 150 75.0001 150C83.902 150 92.4525 148.444 100.373 145.588V126.468L111.418 140.568C118.358 136.71 124.606 131.775 129.968 126.01L129.158 124.474L130.587 125.338C134.733 120.755 138.337 115.671 141.258 110.161L129.147 87.2356Z" fill="#E99E09"/>
<path d="M209.906 53.75V122H194.625V53.75H209.906ZM250.688 53.75L223.969 87.875L208.406 104.75L205.641 90.5469L215.906 75.8281L231.938 53.75H250.688ZM232.969 122L214.125 90.8281L225.75 81.7812L251.062 122H232.969ZM270.516 71.2812V122H255.844V71.2812H270.516ZM254.953 58.1562C254.953 56.0312 255.703 54.2969 257.203 52.9531C258.703 51.5781 260.672 50.8906 263.109 50.8906C265.547 50.8906 267.516 51.5781 269.016 52.9531C270.547 54.2969 271.312 56.0312 271.312 58.1562C271.312 60.25 270.547 61.9844 269.016 63.3594C267.516 64.7031 265.547 65.375 263.109 65.375C260.672 65.375 258.703 64.7031 257.203 63.3594C255.703 61.9844 254.953 60.25 254.953 58.1562ZM295.406 82.1094V122H280.734V71.2812H294.516L295.406 82.1094ZM293.484 94.8594L289.828 94.9531C289.828 91.1406 290.297 87.7188 291.234 84.6875C292.172 81.6562 293.5 79.0781 295.219 76.9531C296.969 74.7969 299.047 73.1562 301.453 72.0312C303.891 70.9062 306.578 70.3438 309.516 70.3438C311.891 70.3438 314.062 70.6875 316.031 71.375C318 72.0625 319.688 73.1719 321.094 74.7031C322.531 76.2031 323.625 78.2031 324.375 80.7031C325.125 83.1719 325.5 86.2188 325.5 89.8438V122H310.781V89.7969C310.781 87.6719 310.484 86.0312 309.891 84.875C309.297 83.7188 308.422 82.9062 307.266 82.4375C306.141 81.9688 304.766 81.7344 303.141 81.7344C301.422 81.7344 299.953 82.0781 298.734 82.7656C297.516 83.4219 296.516 84.3438 295.734 85.5312C294.953 86.7188 294.375 88.1094 294 89.7031C293.656 91.2969 293.484 93.0156 293.484 94.8594ZM373.172 53.75H388.453V98.5625C388.453 103.875 387.328 108.344 385.078 111.969C382.859 115.594 379.766 118.328 375.797 120.172C371.828 122.016 367.234 122.938 362.016 122.938C356.766 122.938 352.141 122.016 348.141 120.172C344.172 118.328 341.047 115.594 338.766 111.969C336.516 108.344 335.391 103.875 335.391 98.5625V53.75H350.719V98.5625C350.719 101.5 351.156 103.906 352.031 105.781C352.938 107.625 354.234 108.984 355.922 109.859C357.609 110.703 359.641 111.125 362.016 111.125C364.391 111.125 366.406 110.703 368.062 109.859C369.75 108.984 371.016 107.625 371.859 105.781C372.734 103.906 373.172 101.5 373.172 98.5625V53.75Z" fill="white"/>
<path d="M92.3458 110.619C90.5332 112.591 88.3689 114.957 86.1941 117.323C80.2346 123.814 70.0001 123.814 64.0513 117.323L57.6441 110.342C55.2559 107.741 56.0448 103.543 59.2432 102.072C65.661 99.1083 76.8337 96.2527 90.5758 102.274C93.8697 103.713 94.7761 107.965 92.3458 110.619Z" fill="#FFC248"/>
<path d="M115.693 67.1769L108.102 53.3216C107.89 52.9273 107.9 52.4369 108.134 52.0533L113.294 43.6868C113.902 42.6956 112.953 41.4699 111.897 41.8856L103.956 45.0936C102.985 45.488 102.047 44.4435 102.473 43.4523L105.192 37.1748C105.618 36.1729 104.67 35.1391 103.7 35.5441L92.388 40.2655C91.4712 40.6493 90.5543 39.7433 90.8529 38.7628L92.9531 31.8245C93.2945 30.7054 92.0678 29.7782 91.1621 30.4709L75.6717 42.184C75.2665 42.4931 74.7121 42.4931 74.307 42.184L58.8167 30.4709C57.9105 29.7888 56.6844 30.7054 57.0256 31.8245L59.1258 38.7628C59.4243 39.7433 58.4968 40.6386 57.5906 40.2655L46.2793 35.5441C45.3092 35.1391 44.3603 36.1836 44.7868 37.1748L47.5054 43.4523C47.9318 44.4435 46.9936 45.488 46.0235 45.0936L38.081 41.8856C37.0256 41.4593 36.0767 42.6956 36.6845 43.6868L41.8444 52.0533C42.0789 52.4369 42.0895 52.9273 41.8763 53.3216L34.2751 67.1769C33.9766 67.7311 34.1258 68.4238 34.6269 68.7862L52.7186 81.7889C53.1343 82.0874 53.3262 82.6416 53.1769 83.1532L46.6525 103.392C46.5245 103.819 46.6418 104.288 46.9616 104.608L49.1578 106.451C55.1173 111.461 63.6994 111.823 70.064 107.336C72.8145 105.396 75 103.829 75 103.829C75 103.829 77.1855 105.396 79.936 107.336C86.29 111.812 94.8828 111.45 100.831 106.451L103.028 104.608C103.337 104.288 103.454 103.819 103.337 103.392L96.8126 83.1532C96.6635 82.6416 96.8448 82.098 97.2708 81.7889L115.363 68.7862C115.842 68.4238 115.991 67.7204 115.693 67.1769Z" fill="white"/>
<path d="M83.6034 93.5454C85.6396 93.2473 86.3859 90.7103 84.8294 89.3567C82.2708 87.1186 77.9637 85.36 71.7271 86.5537C68.742 87.1293 66.5885 88.4935 65.0959 89.8577C63.5821 91.2538 64.3923 93.769 66.4392 94.0146L70.8848 94.5473C71.7697 94.654 72.5266 95.24 72.8465 96.0717L73.774 98.4802C74.2751 99.7912 76.13 99.77 76.6097 98.4591L77.6119 95.7092C77.9104 94.8775 78.6461 94.2805 79.5202 94.1526L83.6034 93.5454Z" fill="#171314"/>
<path d="M67.5158 76.5457L64.4348 68.84C63.7952 67.2519 62.3666 66.1116 60.6715 65.8451L47.7717 63.7987C46.6202 63.6176 46.0979 65.1843 47.1213 65.7278L51.8335 68.2538C51.8335 68.2538 53.2941 76.8867 62.5265 73.9665L65.7781 77.6115C66.5563 78.4855 67.9529 77.6221 67.5158 76.5457Z" fill="#171314"/>
<path d="M82.4521 76.5457L85.5331 68.84C86.1728 67.2519 87.6014 66.1116 89.2965 65.8451L102.196 63.7987C103.347 63.6176 103.87 65.1843 102.847 65.7278L98.1341 68.2538C98.1341 68.2538 96.6737 76.8867 87.4414 73.9665L84.1898 77.6115C83.4116 78.4855 82.0256 77.6221 82.4521 76.5457Z" fill="#171314"/>
</svg>
