<svg width="338" height="338" viewBox="0 0 338 338" fill="none" xmlns="http://www.w3.org/2000/svg">
<path d="M226.151 284.948L251.039 316.722C279.528 300.871 302.952 277.023 318.278 248.204L290.987 196.546L330.12 220.034C335.213 203.919 338 186.772 338 168.976C338 161.651 337.471 154.446 336.582 147.362L283.012 103.22L326.782 108.384C318.902 87.8743 307.13 69.3099 292.38 53.5315L242.197 42.3881L272.37 35.3274C243.783 13.2088 207.941 0 169 0C130.059 0 94.2172 13.2088 65.6301 35.3274L95.8027 42.3881L45.6192 53.5315C30.8691 69.2859 19.0981 87.8743 11.2186 108.384L54.988 103.22L1.41734 147.362C0.504479 154.446 0 161.651 0 168.976C0 186.772 2.76262 203.919 7.87946 220.034L47.0125 196.546L19.7227 248.204C35.0491 277.023 58.4713 300.871 86.9624 316.722L111.85 284.948V328.034C129.699 334.446 148.965 337.977 169.024 337.977C189.083 337.977 208.349 334.469 226.199 328.034V284.948H226.151Z" fill="#E99B00" fill-opacity="0.57"/>
<path d="M291.011 196.571L303.623 204.136L283.011 187.157L326.781 192.32C318.901 171.81 307.13 153.246 292.38 137.468L242.196 126.324L272.369 119.264C243.783 97.145 207.94 83.9363 169 83.9363C130.059 83.9363 94.2169 97.145 65.6298 119.264L95.8024 126.324L45.6187 137.468C30.8689 153.222 19.0977 171.81 11.2183 192.32L54.9878 187.157L34.3762 204.136L46.9882 196.571L19.6983 248.229C26.3046 260.622 34.4003 272.1 43.745 282.428L46.9641 280.482L45.1383 283.942C57.2219 296.933 71.2991 308.053 86.9379 316.747L111.825 284.974V328.058C129.674 334.47 148.941 338 169 338C189.059 338 208.326 334.495 226.173 328.058V284.974L251.061 316.747C266.7 308.053 280.778 296.933 292.861 283.942L291.036 280.482L294.254 282.428C303.598 272.1 311.718 260.645 318.3 248.229L291.011 196.571Z" fill="#E99E09"/>
<path d="M208.086 249.262C204.001 253.704 199.125 259.036 194.224 264.368C180.795 278.993 157.734 278.993 144.329 264.368L129.891 248.638C124.51 242.777 126.288 233.316 133.495 230.001C147.956 223.324 173.132 216.889 204.097 230.457C211.52 233.7 213.562 243.281 208.086 249.262Z" fill="#FFC248"/>
<path d="M260.695 151.372L243.59 120.151C243.111 119.263 243.134 118.158 243.663 117.293L255.29 98.4408C256.658 96.2073 254.52 93.4454 252.142 94.3823L234.246 101.611C232.059 102.5 229.946 100.146 230.906 97.9124L237.033 83.7671C237.993 81.5096 235.856 79.1801 233.67 80.0926L208.181 90.7316C206.115 91.5963 204.049 89.555 204.722 87.3456L209.454 71.7112C210.224 69.1895 207.459 67.1001 205.419 68.6611L170.514 95.0545C169.601 95.7511 168.351 95.7511 167.439 95.0545L132.534 68.6611C130.492 67.1242 127.729 69.1895 128.498 71.7112L133.23 87.3456C133.903 89.555 131.813 91.5723 129.771 90.7316L104.283 80.0926C102.097 79.1801 99.9587 81.5336 100.92 83.7671L107.045 97.9124C108.006 100.146 105.892 102.5 103.706 101.611L85.8093 94.3823C83.4311 93.4216 81.293 96.2073 82.6624 98.4408L94.2894 117.293C94.8177 118.158 94.8418 119.263 94.3613 120.151L77.2332 151.372C76.5606 152.621 76.8969 154.182 78.026 154.998L118.793 184.298C119.729 184.97 120.162 186.219 119.825 187.372L105.124 232.977C104.835 233.939 105.1 234.996 105.82 235.716L110.769 239.87C124.198 251.158 143.536 251.974 157.878 241.864C164.075 237.492 169 233.962 169 233.962C169 233.962 173.925 237.492 180.122 241.864C194.44 251.95 213.803 251.135 227.207 239.87L232.156 235.716C232.853 234.996 233.116 233.939 232.853 232.977L218.151 187.372C217.815 186.219 218.224 184.994 219.184 184.298L259.951 154.998C261.031 154.182 261.367 152.597 260.695 151.372Z" fill="white"/>
<path d="M188.386 210.789C192.974 210.117 194.656 204.401 191.148 201.35C185.383 196.307 175.678 192.345 161.625 195.034C154.898 196.331 150.045 199.405 146.682 202.479C143.271 205.625 145.097 211.293 149.709 211.846L159.727 213.047C161.721 213.287 163.426 214.608 164.147 216.482L166.237 221.909C167.366 224.863 171.546 224.815 172.627 221.861L174.885 215.665C175.558 213.791 177.215 212.445 179.185 212.157L188.386 210.789Z" fill="#171314"/>
<path d="M152.136 172.483L145.193 155.119C143.752 151.541 140.533 148.971 136.713 148.371L107.645 143.76C105.051 143.352 103.874 146.882 106.18 148.107L116.798 153.798C116.798 153.798 120.089 173.251 140.893 166.671L148.22 174.885C149.974 176.854 153.12 174.909 152.136 172.483Z" fill="#171314"/>
<path d="M185.792 172.483L192.734 155.119C194.176 151.541 197.395 148.971 201.214 148.371L230.281 143.76C232.876 143.352 234.053 146.882 231.747 148.107L221.128 153.798C221.128 153.798 217.838 173.251 197.034 166.671L189.707 174.885C187.954 176.854 184.831 174.909 185.792 172.483Z" fill="#171314"/>
</svg>
