<svg width="19" height="19" viewBox="0 0 19 19" fill="none" xmlns="http://www.w3.org/2000/svg">
<path d="M16.625 3.95833C16.625 5.27 13.435 6.33333 9.5 6.33333C5.56497 6.33333 2.375 5.27 2.375 3.95833M16.625 3.95833C16.625 2.64665 13.435 1.58333 9.5 1.58333C5.56497 1.58333 2.375 2.64665 2.375 3.95833M16.625 3.95833V15.0417C16.625 16.3558 13.4583 17.4167 9.5 17.4167C5.54167 17.4167 2.375 16.3558 2.375 15.0417V3.95833M16.625 9.49999C16.625 10.8142 13.4583 11.875 9.5 11.875C5.54167 11.875 2.375 10.8142 2.375 9.49999" stroke="#737373" stroke-width="1.5" stroke-linecap="round" stroke-linejoin="round"/>
</svg>
