<svg width="19" height="19" viewBox="0 0 19 19" fill="none" xmlns="http://www.w3.org/2000/svg">
<path d="M9.49992 1.58333H6.72909C5.99421 1.58333 5.28944 1.87525 4.76981 2.39489C4.25018 2.91452 3.95825 3.61929 3.95825 4.35416C3.95825 5.08903 4.25018 5.7938 4.76981 6.31344C5.28944 6.83307 5.99421 7.125 6.72909 7.125M9.49992 1.58333V7.125M9.49992 1.58333H12.2708C12.6346 1.58333 12.9949 1.655 13.3311 1.79425C13.6673 1.93349 13.9727 2.13759 14.23 2.39489C14.4873 2.65218 14.6914 2.95764 14.8307 3.29381C14.9699 3.62998 15.0416 3.99029 15.0416 4.35416C15.0416 4.71803 14.9699 5.07834 14.8307 5.41451C14.6914 5.75069 14.4873 6.05614 14.23 6.31344C13.9727 6.57073 13.6673 6.77483 13.3311 6.91408C12.9949 7.05333 12.6346 7.125 12.2708 7.125M9.49992 7.125H6.72909M9.49992 7.125H12.2708M9.49992 7.125V12.6667M6.72909 7.125C5.99421 7.125 5.28944 7.41692 4.76981 7.93655C4.25018 8.45619 3.95825 9.16096 3.95825 9.89583C3.95825 10.6307 4.25018 11.3355 4.76981 11.8551C5.28944 12.3747 5.99421 12.6667 6.72909 12.6667M12.2708 7.125C11.9069 7.125 11.5466 7.19666 11.2104 7.33591C10.8742 7.47516 10.5688 7.67926 10.3115 7.93655C10.0542 8.19385 9.85008 8.4993 9.71084 8.83548C9.57159 9.17165 9.49992 9.53196 9.49992 9.89583C9.49992 10.2597 9.57159 10.62 9.71084 10.9562C9.85008 11.2924 10.0542 11.5978 10.3115 11.8551C10.5688 12.1124 10.8742 12.3165 11.2104 12.4557C11.5466 12.595 11.9069 12.6667 12.2708 12.6667C12.6346 12.6667 12.9949 12.595 13.3311 12.4557C13.6673 12.3165 13.9727 12.1124 14.23 11.8551C14.4873 11.5978 14.6914 11.2924 14.8307 10.9562C14.9699 10.62 15.0416 10.2597 15.0416 9.89583C15.0416 9.53196 14.9699 9.17165 14.8307 8.83548C14.6914 8.4993 14.4873 8.19385 14.23 7.93655C13.9727 7.67926 13.6673 7.47516 13.3311 7.33591C12.9949 7.19666 12.6346 7.125 12.2708 7.125ZM6.72909 12.6667C5.99421 12.6667 5.28944 12.9586 4.76981 13.4782C4.25018 13.9979 3.95825 14.7026 3.95825 15.4375C3.95825 16.1724 4.25018 16.8771 4.76981 17.3968C5.28944 17.9164 5.99421 18.2083 6.72909 18.2083C7.46396 18.2083 8.16873 17.9164 8.68836 17.3968C9.20799 16.8771 9.49992 16.1724 9.49992 15.4375V12.6667M6.72909 12.6667H9.49992" stroke="#737373" stroke-width="1.5" stroke-linecap="round" stroke-linejoin="round"/>
</svg>
