<svg width="19" height="19" viewBox="0 0 19 19" fill="none" xmlns="http://www.w3.org/2000/svg">
<g clip-path="url(#clip0_117_9171)">
<path d="M15.8333 9.49999V17.4167H3.16659V9.49999M9.49992 17.4167V5.54166M9.49992 5.54166H5.93742C5.41251 5.54166 4.9091 5.33314 4.53794 4.96198C4.16677 4.59081 3.95825 4.0874 3.95825 3.56249C3.95825 3.03759 4.16677 2.53418 4.53794 2.16301C4.9091 1.79185 5.41251 1.58333 5.93742 1.58333C8.70825 1.58333 9.49992 5.54166 9.49992 5.54166ZM9.49992 5.54166H13.0624C13.5873 5.54166 14.0907 5.33314 14.4619 4.96198C14.8331 4.59081 15.0416 4.0874 15.0416 3.56249C15.0416 3.03759 14.8331 2.53418 14.4619 2.16301C14.0907 1.79185 13.5873 1.58333 13.0624 1.58333C10.2916 1.58333 9.49992 5.54166 9.49992 5.54166ZM1.58325 5.54166H17.4166V9.49999H1.58325V5.54166Z" stroke="white" stroke-width="1.5" stroke-linecap="round" stroke-linejoin="round"/>
</g>
<defs>
<clipPath id="clip0_117_9171">
<rect width="19" height="19" fill="white"/>
</clipPath>
</defs>
</svg>
