<svg width="19" height="19" viewBox="0 0 19 19" fill="none" xmlns="http://www.w3.org/2000/svg">
<path d="M9.50008 4.74999H9.508M4.75008 1.58333H14.2501C15.1245 1.58333 15.8334 2.29221 15.8334 3.16666V15.8333C15.8334 16.7078 15.1245 17.4167 14.2501 17.4167H4.75008C3.87563 17.4167 3.16675 16.7078 3.16675 15.8333V3.16666C3.16675 2.29221 3.87563 1.58333 4.75008 1.58333ZM12.6667 11.0833C12.6667 12.8322 11.249 14.25 9.50008 14.25C7.75118 14.25 6.33341 12.8322 6.33341 11.0833C6.33341 9.33443 7.75118 7.91666 9.50008 7.91666C11.249 7.91666 12.6667 9.33443 12.6667 11.0833Z" stroke="#737373" stroke-width="1.5" stroke-linecap="round" stroke-linejoin="round"/>
</svg>
