<svg width="19" height="19" viewBox="0 0 19 19" fill="none" xmlns="http://www.w3.org/2000/svg">
<path d="M11.0834 11.685V2.77084C11.0834 2.24593 10.8749 1.74252 10.5037 1.37136C10.1326 1.00019 9.62916 0.791672 9.10425 0.791672C8.57934 0.791672 8.07593 1.00019 7.70477 1.37136C7.3336 1.74252 7.12508 2.24593 7.12508 2.77084V11.685C6.48959 12.1096 6.0075 12.7273 5.75001 13.4469C5.49252 14.1665 5.47328 14.9499 5.69514 15.6813C5.91699 16.4126 6.36818 17.0533 6.98206 17.5086C7.59594 17.9639 8.33996 18.2097 9.10425 18.2097C9.86854 18.2097 10.6126 17.9639 11.2264 17.5086C11.8403 17.0533 12.2915 16.4126 12.5134 15.6813C12.7352 14.9499 12.716 14.1665 12.4585 13.4469C12.201 12.7273 11.7189 12.1096 11.0834 11.685Z" stroke="#737373" stroke-width="1.5" stroke-linecap="round" stroke-linejoin="round"/>
</svg>
