<svg width="19" height="19" viewBox="0 0 19 19" fill="none" xmlns="http://www.w3.org/2000/svg">
<path d="M11.6376 4.98749C11.4925 5.13548 11.4113 5.33444 11.4113 5.54166C11.4113 5.74888 11.4925 5.94784 11.6376 6.09583L12.9042 7.3625C13.0522 7.50755 13.2512 7.5888 13.4584 7.5888C13.6656 7.5888 13.8646 7.50755 14.0126 7.3625L16.9972 4.37791C17.3952 5.2576 17.5158 6.23772 17.3427 7.18765C17.1696 8.13758 16.7111 9.01221 16.0284 9.69497C15.3456 10.3777 14.471 10.8362 13.5211 11.0093C12.5711 11.1824 11.591 11.0618 10.7113 10.6637L5.2409 16.1342C4.92596 16.4491 4.4988 16.626 4.0534 16.626C3.608 16.626 3.18085 16.4491 2.8659 16.1342C2.55096 15.8192 2.37402 15.3921 2.37402 14.9467C2.37402 14.5013 2.55096 14.0741 2.8659 13.7592L8.33632 8.28875C7.93824 7.40905 7.81771 6.42893 7.99079 5.479C8.16387 4.52907 8.62234 3.65445 9.3051 2.97169C9.98786 2.28893 10.8625 1.83046 11.8124 1.65738C12.7623 1.4843 13.7425 1.60483 14.6222 2.00291L11.6376 4.98749Z" stroke="#737373" stroke-width="1.5" stroke-linecap="round" stroke-linejoin="round"/>
</svg>
