<svg width="19" height="19" viewBox="0 0 19 19" fill="none" xmlns="http://www.w3.org/2000/svg">
<path d="M12.6667 12.6667V2.375H0.791748V12.6667H12.6667ZM12.6667 12.6667H18.2084V8.70833L15.8334 6.33333H12.6667V12.6667ZM6.33342 14.6458C6.33342 15.7389 5.44731 16.625 4.35425 16.625C3.26118 16.625 2.37508 15.7389 2.37508 14.6458C2.37508 13.5528 3.26118 12.6667 4.35425 12.6667C5.44731 12.6667 6.33342 13.5528 6.33342 14.6458ZM16.6251 14.6458C16.6251 15.7389 15.739 16.625 14.6459 16.625C13.5529 16.625 12.6667 15.7389 12.6667 14.6458C12.6667 13.5528 13.5529 12.6667 14.6459 12.6667C15.739 12.6667 16.6251 13.5528 16.6251 14.6458Z" stroke="#737373" stroke-width="1.5" stroke-linecap="round" stroke-linejoin="round"/>
</svg>
